# xmcd CD database file
#
# Track frame offsets:
#	150
#	11950
#	22740
#	32220
#	43210
#	52905
#	64895
#	77675
#	88825
#	98392
#	111827
#	121787
#	131430
#	144050
#	152940
#	162707
#	172920
#	181997
#	194390
#	203732
#	213430
#	226447
#	236132
#	247942
#	260385
#	266895
#	278487
#	289357
#	296852
#	305237
#
# Disc length: 4207 seconds
#
# Revision: 0
# Processed by: cddbd v1.5.2PL0 Copyright (c) Steve Scherf et al.
# Submitted via: CDex 1.70beta2
#
DISCID=b5106d1e
DTITLE=Nashville Pianos - 30 Classics
DYEAR=1900
DGENRE=Country
TTITLE0=Bill Bailey
TTITLE1=Honey Hungry
TTITLE2=My Old Kentucky Home
TTITLE3=Danny Boy
TTITLE4=Blue Danube Waltz
TTITLE5=Blues Stay Away From Me
TTITLE6=Frankie And Johnny
TTITLE7=500 Miles Away From Home
TTITLE8=There Is A Tavern In The Town
TTITLE9=Shenandoah
TTITLE10=Black and White Rag
TTITLE11=Under The Double Eagle
TTITLE12=Red River Valley
TTITLE13=Maple Leaf Rag
TTITLE14=Columbus Stockade Blues
TTITLE15=Down Yonder
TTITLE16=Be Nobody's Darlin' But Mine
TTITLE17=Long, Long Ago
TTITLE18=Red Wing
TTITLE19=Home Sweet Home
TTITLE20=Apartment #9
TTITLE21=Piano Boogie woogie
TTITLE22=On Top Of Old Smokey
TTITLE23=The Chevy Chase
TTITLE24=I've Been Working On The Railroad
TTITLE25=The Great Speckled Bird
TTITLE26=What A Friend We Have In Jesus
TTITLE27=When You And I Were Young Maggie
TTITLE28=Don't Let Your Deal Go Down
TTITLE29=Rig-A-Ma-Role-Rag
EXTD=
EXTT0=
EXTT1=
EXTT2=
EXTT3=
EXTT4=
EXTT5=
EXTT6=
EXTT7=
EXTT8=
EXTT9=
EXTT10=
EXTT11=
EXTT12=
EXTT13=
EXTT14=
EXTT15=
EXTT16=
EXTT17=
EXTT18=
EXTT19=
EXTT20=
EXTT21=
EXTT22=
EXTT23=
EXTT24=
EXTT25=
EXTT26=
EXTT27=
EXTT28=
EXTT29=
PLAYORDER=
